<?xml version="1.0" standalone="no"?>
<!DOCTYPE svg PUBLIC "-//W3C//DTD SVG 20010904//EN"
 "http://www.w3.org/TR/2001/REC-SVG-20010904/DTD/svg10.dtd">
<svg version="1.0" xmlns="http://www.w3.org/2000/svg"
 width="1118.000000pt" height="405.000000pt" viewBox="0 0 1118.000000 405.000000"
 preserveAspectRatio="xMidYMid meet">
<metadata>
Created by potrace 1.14, written by Peter Selinger 2001-2017
</metadata>
<g transform="translate(0.000000,405.000000) scale(0.100000,-0.100000)"
fill="#FFFFFF" stroke="none">
<path d="M10532 3818 c-7 -7 -12 -21 -12 -32 0 -12 -7 -34 -15 -50 -8 -16 -22
-54 -30 -86 -8 -31 -21 -72 -29 -91 -8 -19 -17 -56 -21 -84 -7 -47 -39 -158
-63 -215 -11 -28 -39 -121 -73 -250 -13 -47 -26 -89 -31 -95 -4 -5 -8 -23 -8
-40 0 -16 -9 -59 -20 -93 -11 -35 -20 -76 -20 -92 0 -15 -7 -47 -16 -71 -8
-24 -18 -59 -20 -78 -3 -19 -9 -40 -14 -46 -5 -6 -12 -45 -15 -86 -6 -75 -24
-182 -51 -299 -11 -49 -14 -104 -11 -220 10 -323 13 -358 57 -565 6 -27 12
-63 13 -80 5 -47 30 -138 44 -160 7 -11 13 -36 13 -57 0 -26 7 -44 20 -55 11
-10 20 -23 20 -30 0 -6 10 -19 22 -27 25 -18 48 -6 48 26 0 10 7 32 15 47 16
31 43 145 49 201 2 19 10 71 19 115 9 44 21 123 27 175 7 52 16 122 21 155 6
33 14 89 19 125 5 36 13 88 19 115 6 28 15 84 21 125 15 95 23 112 53 101 19
-7 22 -16 23 -62 1 -30 2 -56 4 -59 1 -3 3 -59 5 -125 1 -66 8 -133 14 -148 6
-16 11 -56 11 -91 0 -34 4 -66 9 -72 5 -5 12 -52 15 -104 6 -88 24 -192 46
-266 6 -17 10 -43 10 -58 0 -36 37 -106 55 -106 12 0 15 14 15 59 0 33 -4 61
-10 63 -11 3 -46 167 -60 278 -5 41 -14 102 -20 135 -23 139 -56 535 -44 535
2 0 18 -9 36 -20 47 -29 68 -26 68 8 0 39 -12 52 -61 66 l-44 13 -1 54 c-1 86
15 318 27 394 13 80 29 145 57 230 11 33 32 94 45 135 14 41 30 89 35 105 6
17 19 57 28 90 10 33 21 65 24 70 4 6 17 44 30 85 13 41 27 84 31 95 33 82 49
147 39 165 -6 11 -18 20 -26 20 -15 0 -64 -46 -64 -61 0 -4 -6 -14 -14 -21
-28 -28 -77 -136 -110 -243 -10 -33 -22 -69 -27 -80 -4 -11 -10 -31 -12 -45
-3 -14 -12 -50 -20 -80 -26 -95 -49 -222 -53 -290 -7 -101 -30 -257 -52 -345
-35 -144 -44 -180 -53 -203 -9 -22 -12 -23 -156 -22 -82 0 -157 -1 -168 -2
-18 -3 -20 2 -17 52 2 30 11 80 19 110 9 30 15 69 15 85 -1 17 2 41 7 55 23
66 43 142 38 147 -3 3 3 22 14 42 10 20 21 61 24 89 3 29 9 61 14 70 4 9 12
39 16 66 3 27 14 65 22 85 21 48 26 63 52 151 13 41 29 90 37 108 8 18 14 40
14 48 0 9 6 30 14 47 8 18 20 57 26 87 7 30 19 75 27 100 8 24 12 54 9 66 -4
13 0 27 9 34 25 20 56 136 45 165 -10 27 -29 32 -48 13z m-161 -1684 c58 -3
111 -9 117 -13 9 -5 7 -27 -7 -87 -10 -43 -29 -133 -41 -199 -12 -66 -28 -154
-35 -195 -8 -41 -24 -131 -35 -200 -12 -69 -30 -169 -41 -222 -10 -53 -19
-105 -19 -116 0 -27 -26 -59 -39 -47 -13 13 -81 307 -113 490 -12 67 -17 560
-6 587 6 13 17 16 60 12 29 -2 101 -6 159 -10z"/>
<path d="M9545 3602 c-9 -48 -17 -94 -17 -102 0 -8 -4 -24 -9 -35 -4 -11 -15
-47 -23 -80 -13 -59 -63 -243 -90 -340 -8 -27 -24 -75 -36 -105 -12 -30 -29
-82 -36 -115 -8 -33 -21 -74 -30 -92 -8 -17 -17 -46 -20 -65 -4 -18 -12 -42
-19 -54 -8 -11 -18 -41 -25 -65 -24 -96 -133 -419 -140 -419 -5 0 -11 -13 -15
-29 -3 -16 -13 -35 -21 -42 -8 -6 -14 -15 -14 -19 0 -5 -12 -21 -28 -37 -15
-15 -39 -41 -53 -58 -14 -16 -35 -38 -47 -49 l-22 -19 -21 49 c-12 27 -32 80
-45 118 -30 86 -49 116 -74 116 -24 0 -37 -25 -80 -150 -43 -126 -48 -137 -94
-195 -48 -61 -65 -75 -87 -75 -42 0 -69 171 -62 395 5 148 10 188 33 270 5 17
14 64 20 105 6 41 17 91 24 110 25 66 45 135 51 180 4 25 13 52 20 60 7 8 18
35 25 59 6 24 34 95 61 158 41 93 49 120 43 149 -10 52 -42 43 -72 -19 -64
-136 -173 -497 -212 -707 -10 -52 -26 -133 -35 -180 -21 -112 -16 -428 10
-538 26 -114 87 -165 132 -112 10 11 23 20 30 20 7 0 18 10 24 23 6 12 22 33
34 47 39 44 76 120 106 223 27 93 37 89 63 -24 26 -118 68 -189 111 -189 18 0
102 78 158 149 39 49 128 266 142 346 3 22 13 50 21 62 8 13 21 60 30 105 8
46 19 92 24 103 12 26 54 165 91 295 16 58 40 141 54 185 13 44 27 94 31 110
3 17 17 66 29 110 27 92 52 200 61 265 4 25 10 50 14 55 5 6 11 35 15 66 11
91 -10 77 -30 -19z"/>
<path d="M1627 3560 c-9 -6 -36 -12 -60 -12 -23 0 -66 -11 -96 -24 -29 -13
-61 -24 -70 -24 -9 0 -21 -4 -26 -9 -6 -5 -28 -14 -50 -21 -22 -7 -62 -29 -89
-48 -27 -18 -72 -42 -100 -52 -73 -25 -133 -57 -139 -74 -3 -8 -19 -17 -35
-21 -17 -3 -38 -15 -48 -26 -9 -10 -21 -19 -26 -19 -23 0 -178 -97 -194 -122
-11 -16 -35 -38 -55 -50 -21 -11 -42 -31 -47 -43 -6 -12 -25 -39 -43 -59 -79
-91 31 -38 152 72 140 127 625 387 833 447 73 20 169 23 218 5 28 -10 39 -21
44 -43 7 -33 -13 -115 -33 -137 -8 -8 -33 -44 -56 -80 -23 -36 -80 -106 -127
-156 -47 -51 -91 -98 -97 -105 -54 -59 -84 -83 -91 -72 -7 10 6 115 35 293 12
75 6 191 -11 208 -24 24 -35 5 -40 -68 -3 -61 -32 -366 -42 -457 -5 -45 -31
-71 -218 -218 -42 -33 -76 -64 -76 -70 -1 -5 -26 -28 -57 -50 l-55 -40 6 -50
c9 -82 58 -102 264 -112 l112 -6 -1 -41 c0 -23 3 -106 6 -186 4 -80 7 -155 6
-167 0 -13 -1 -34 -1 -48 1 -14 1 -46 2 -72 0 -27 0 -85 -1 -131 -1 -56 4 -94
15 -120 18 -40 29 -232 15 -242 -15 -9 -113 -93 -185 -159 -39 -35 -81 -68
-93 -74 -13 -5 -23 -14 -23 -18 0 -5 -15 -16 -32 -25 -30 -16 -65 -45 -141
-116 -16 -16 -34 -28 -41 -28 -7 0 -21 -9 -31 -20 -10 -11 -22 -20 -26 -20 -5
0 -17 -6 -26 -14 -74 -61 -132 -103 -153 -114 -31 -15 -60 -33 -78 -49 -7 -7
-20 -13 -27 -13 -8 0 -29 -13 -47 -29 -18 -16 -62 -45 -98 -64 -36 -20 -80
-52 -98 -72 -36 -38 -27 -47 16 -16 15 10 45 24 67 31 50 16 205 101 205 112
0 4 5 8 11 8 14 0 140 81 204 132 28 21 86 64 130 95 44 31 99 74 122 94 22
21 58 47 80 57 21 11 44 30 51 41 7 12 17 21 23 21 6 0 25 13 42 29 93 85 148
131 155 131 4 0 8 -60 9 -132 3 -182 11 -331 19 -352 4 -9 4 -36 1 -58 -12
-88 13 -169 38 -128 12 20 12 156 -1 340 -15 207 -17 314 -8 356 4 20 26 44
72 79 37 28 81 65 99 83 20 20 47 35 67 39 24 4 48 20 80 54 26 27 45 53 42
57 -2 4 8 16 24 27 16 11 33 30 39 42 6 13 15 23 21 23 17 0 200 196 200 215
0 4 11 18 25 31 14 13 25 32 25 44 0 11 5 20 10 20 6 0 10 10 10 23 0 13 5 28
11 34 19 19 30 113 18 158 -28 101 -168 167 -364 170 -60 1 -144 7 -185 13
-41 5 -111 11 -155 11 -43 1 -82 7 -86 12 -9 16 1 339 12 374 5 17 21 38 37
47 15 9 41 31 57 48 17 18 66 70 110 117 102 107 134 145 177 213 122 192 128
302 18 349 -60 26 -129 35 -153 21z m-303 -877 c-4 -14 -7 -85 -8 -157 l-1
-131 -130 2 c-146 3 -188 11 -193 37 -4 19 50 76 71 76 6 0 30 19 52 43 23 23
58 53 79 67 21 14 56 42 78 62 44 41 62 41 52 1z m281 -378 c179 -7 239 -13
320 -32 95 -22 129 -38 155 -70 19 -24 21 -36 16 -86 -6 -59 -32 -123 -60
-146 -9 -8 -16 -17 -16 -22 0 -12 -100 -140 -121 -156 -9 -7 -64 -59 -123
-117 -59 -59 -112 -106 -117 -106 -5 0 -36 -27 -69 -60 -33 -33 -63 -60 -68
-60 -5 0 -30 -18 -55 -40 -25 -22 -48 -40 -51 -40 -3 0 -5 17 -5 38 1 73 -11
208 -22 255 -6 27 -9 65 -5 85 3 20 1 68 -5 106 -10 73 -21 445 -12 459 2 4
28 5 56 2 29 -3 111 -7 182 -10z"/>
<path d="M2853 2728 c-24 -12 -46 -30 -49 -41 -3 -10 -19 -27 -36 -37 -17 -10
-38 -30 -47 -44 -34 -53 -127 -165 -141 -170 -14 -6 -120 -165 -120 -181 0 -5
-6 -16 -14 -24 -24 -27 -81 -143 -100 -202 -13 -43 -26 -62 -59 -88 -54 -42
-84 -48 -120 -28 -42 25 -57 22 -57 -12 0 -20 9 -37 30 -54 41 -35 64 -41 106
-27 42 14 47 10 65 -55 7 -24 29 -58 55 -85 l45 -45 87 0 c78 0 94 4 152 33
83 41 220 144 220 165 0 6 12 23 27 39 14 15 36 43 47 62 45 73 78 118 83 113
2 -3 0 -30 -7 -61 -13 -62 -4 -90 31 -101 35 -11 75 25 323 290 46 50 87 87
90 84 4 -3 -2 -33 -13 -65 -36 -108 -42 -155 -31 -214 15 -82 19 -90 43 -90
40 0 97 21 97 35 0 7 16 23 35 35 34 21 46 40 25 40 -5 0 -24 -9 -42 -20 -18
-11 -48 -20 -67 -20 l-34 0 7 86 c4 48 13 96 21 108 15 23 52 123 65 173 16
67 -16 112 -57 79 -10 -8 -33 -27 -50 -41 -18 -15 -33 -33 -33 -40 0 -8 -9
-16 -19 -20 -25 -8 -91 -75 -91 -93 0 -17 -201 -222 -217 -222 -15 0 -18 41
-4 56 4 5 13 35 19 67 12 63 2 139 -23 173 -11 16 -15 16 -30 4 -11 -9 -15
-23 -12 -39 8 -36 -51 -154 -107 -216 -25 -27 -76 -84 -113 -126 -150 -168
-307 -229 -420 -164 -33 20 -43 32 -44 53 -3 68 8 104 41 132 37 32 190 212
190 224 0 7 14 25 31 42 17 16 40 47 51 69 11 22 30 50 41 63 11 12 30 37 41
56 12 19 42 65 67 103 63 93 101 182 97 224 -4 42 -20 46 -75 17z m-55 -165
c-23 -38 -60 -92 -80 -122 -21 -30 -38 -58 -38 -62 0 -5 -13 -23 -29 -41 -30
-33 -66 -78 -141 -175 -22 -29 -45 -53 -50 -53 -17 0 -11 25 10 38 11 7 20 18
20 25 0 7 12 29 26 48 14 19 39 61 54 94 15 33 51 87 80 120 29 33 63 77 77
98 14 20 31 37 37 37 6 0 19 14 28 30 9 17 24 30 33 30 11 0 4 -18 -27 -67z"/>
<path d="M3958 2503 c-2 -10 -2 -56 0 -103 2 -47 3 -112 2 -145 0 -33 4 -82 9
-108 5 -26 5 -65 0 -85 -7 -33 -17 -206 -24 -417 -1 -39 -7 -80 -13 -92 -14
-25 -32 -178 -32 -270 0 -34 -4 -64 -9 -67 -4 -3 -9 -32 -9 -65 -1 -54 -13
-131 -43 -271 -5 -25 -11 -64 -13 -88 -2 -23 -6 -45 -10 -49 -3 -3 -6 -16 -6
-27 0 -12 -27 -90 -60 -174 -45 -113 -68 -160 -90 -178 -16 -14 -51 -46 -78
-73 -34 -34 -62 -51 -95 -59 -64 -17 -138 -15 -194 4 -48 17 -135 70 -142 87
-2 5 -12 18 -22 28 -10 10 -25 32 -34 48 -8 17 -22 31 -30 31 -22 0 -19 -13
13 -53 77 -101 97 -132 94 -143 -4 -17 17 -29 30 -16 11 11 48 4 48 -9 0 -5
-4 -9 -10 -9 -5 0 -10 -4 -10 -10 0 -35 239 -54 321 -25 45 16 142 109 196
188 14 20 31 37 38 37 13 0 25 27 44 100 6 25 18 68 27 95 36 115 87 421 105
630 17 192 27 291 38 375 21 153 25 241 25 562 -1 280 -3 319 -18 342 -19 30
-42 34 -48 9z"/>
<path d="M6448 2465 c-2 -3 -19 -7 -37 -9 -38 -4 -79 -42 -155 -141 -56 -73
-126 -206 -126 -237 0 -11 -7 -32 -15 -49 -33 -63 -57 -161 -46 -185 13 -28
47 -49 56 -33 4 6 4 13 1 16 -3 4 1 14 10 24 9 10 29 71 46 136 43 173 100
280 192 360 76 67 160 60 193 -16 9 -20 22 -49 29 -65 16 -39 11 -215 -9 -281
-9 -27 -19 -75 -22 -105 -6 -47 -3 -62 15 -93 13 -21 27 -36 33 -34 26 8 51
73 53 137 1 36 7 108 14 160 19 142 -8 270 -72 351 -38 47 -137 87 -160 64z"/>
<path d="M9589 2389 c-60 -47 -106 -110 -115 -160 -4 -19 -14 -47 -22 -64 -33
-65 -43 -143 -31 -229 13 -92 29 -129 64 -152 21 -13 30 -14 62 -3 75 24 138
82 179 164 14 28 31 61 39 75 8 14 15 35 15 46 0 12 7 41 15 65 22 60 17 164
-10 208 -62 104 -110 116 -196 50z m108 -57 c18 -11 43 -77 43 -111 0 -41 -14
-73 -45 -106 -31 -34 -28 -49 9 -53 15 -2 26 -7 24 -10 -2 -4 -18 -32 -37 -62
-39 -63 -93 -113 -144 -135 -31 -13 -38 -13 -50 0 -30 30 -32 230 -3 265 7 8
19 37 27 65 10 37 28 63 67 102 51 51 80 63 109 45z"/>
<path d="M4375 2263 c-58 -41 -125 -103 -125 -115 0 -5 -8 -21 -19 -36 -137
-199 -178 -296 -186 -441 -3 -58 -1 -65 23 -87 24 -22 33 -24 81 -18 30 3 66
11 80 17 43 18 141 81 141 92 1 6 18 24 40 40 21 17 44 41 51 55 8 14 34 48
59 77 25 28 55 64 67 80 l23 28 19 -25 c55 -70 82 -81 135 -56 40 19 52 33 92
105 32 59 58 75 69 42 4 -14 18 -22 51 -27 39 -6 54 -2 119 31 63 32 77 36 90
25 31 -26 195 -1 267 40 10 6 51 10 92 10 82 0 101 11 90 54 -6 24 -11 26 -58
27 -89 2 -117 -2 -165 -23 -62 -27 -141 -47 -160 -41 -9 3 -26 10 -38 15 -32
16 -88 3 -140 -31 -26 -17 -55 -32 -65 -32 -10 -1 -23 -2 -30 -3 -6 -1 -17 15
-23 34 -19 55 -37 48 -88 -32 -64 -100 -104 -141 -131 -134 -11 3 -24 6 -28 6
-15 0 -38 61 -38 100 0 51 -15 80 -40 80 -14 0 -28 -17 -50 -62 -38 -80 -88
-149 -167 -229 -35 -35 -63 -67 -63 -71 0 -4 -5 -8 -10 -8 -6 0 -24 -15 -41
-34 -32 -37 -91 -63 -149 -68 l-35 -3 3 49 c3 68 64 234 92 251 6 3 10 14 10
24 0 10 11 28 25 41 14 13 25 27 25 32 0 4 25 34 55 66 55 59 118 102 131 89
10 -9 -15 -65 -32 -71 -22 -9 -44 -67 -33 -88 20 -38 55 -22 106 49 42 60 48
74 48 119 0 68 -22 94 -79 94 -31 0 -53 -9 -91 -37z"/>
</g>
</svg>
